{
  "version": "1.1.6",
  "modules": [
    {
      "id": 3,
      "plugin": "Fundamental",
      "version": "1.4.0",
      "model": "VCO",
      "params": [
        {
          "id": 0,
          "value": 1.0
        },
        {
          "id": 1,
          "value": 1.0
        },
        {
          "id": 2,
          "value": -5.0883522
        },
        {
          "id": 3,
          "value": -0.354000032
        },
        {
          "id": 4,
          "value": 0.0344999842
        },
        {
          "id": 5,
          "value": 0.100000001
        },
        {
          "id": 6,
          "value": 0.0434999764
        }
      ],
      "pos": [
        21,
        0
      ]
    },
    {
      "id": 9,
      "plugin": "Fundamental",
      "version": "1.4.0",
      "model": "VCA",
      "params": [
        {
          "id": 0,
          "value": 1.0
        },
        {
          "id": 1,
          "value": 0.624999762
        }
      ],
      "pos": [
        33,
        0
      ]
    },
    {
      "id": 11,
      "plugin": "Core",
      "version": "1.1.6",
      "model": "MIDIToCVInterface",
      "params": [],
      "data": {
        "channels": 1,
        "polyMode": 0,
        "clockDivision": 24,
        "lastPitch": 8192,
        "lastMod": 0,
        "midi": {
          "driver": -11,
          "deviceName": "QWERTY keyboard (US)",
          "channel": -1
        }
      },
      "pos": [
        0,
        0
      ]
    },
    {
      "id": 12,
      "plugin": "Core",
      "version": "1.1.6",
      "model": "AudioInterface",
      "params": [],
      "data": {
        "audio": {
          "driver": 6,
          "deviceName": "Lautsprecher (High Definition Audio Device)",
          "offset": 0,
          "maxChannels": 8,
          "sampleRate": 11025,
          "blockSize": 256
        }
      },
      "pos": [
        50,
        0
      ]
    },
    {
      "id": 13,
      "plugin": "Fundamental",
      "version": "1.4.0",
      "model": "Scope",
      "params": [
        {
          "id": 0,
          "value": 0.0
        },
        {
          "id": 1,
          "value": 0.0
        },
        {
          "id": 2,
          "value": 0.0
        },
        {
          "id": 3,
          "value": 0.0
        },
        {
          "id": 4,
          "value": 14.0
        },
        {
          "id": 5,
          "value": 0.0
        },
        {
          "id": 6,
          "value": 0.0
        },
        {
          "id": 7,
          "value": 0.0
        }
      ],
      "data": {
        "lissajous": 0,
        "external": 0
      },
      "pos": [
        47,
        1
      ]
    },
    {
      "id": 14,
      "plugin": "VCV-Recorder",
      "version": "1.1.0",
      "model": "Recorder",
      "params": [
        {
          "id": 0,
          "value": 1.0
        },
        {
          "id": 1,
          "value": 0.0
        }
      ],
      "data": {
        "format": "wav",
        "path": "C:\\Users\\marlo\\Desktop/Mdt-rec.wav",
        "incrementPath": true,
        "sampleRate": 44100,
        "depth": 16,
        "bitRate": 256000,
        "videoBitRate": 2048000
      },
      "pos": [
        62,
        0
      ]
    },
    {
      "id": 15,
      "plugin": "Fundamental",
      "version": "1.4.0",
      "model": "VCO",
      "params": [
        {
          "id": 0,
          "value": 1.0
        },
        {
          "id": 1,
          "value": 1.0
        },
        {
          "id": 2,
          "value": -14.3223543
        },
        {
          "id": 3,
          "value": 0.00199992117
        },
        {
          "id": 4,
          "value": 0.0344999842
        },
        {
          "id": 5,
          "value": 0.100000001
        },
        {
          "id": 6,
          "value": 0.0434999764
        }
      ],
      "pos": [
        10,
        0
      ]
    },
    {
      "id": 16,
      "plugin": "Fundamental",
      "version": "1.4.0",
      "model": "VCMixer",
      "params": [
        {
          "id": 0,
          "value": 1.0
        },
        {
          "id": 1,
          "value": 0.859849572
        },
        {
          "id": 2,
          "value": 0.608111143
        },
        {
          "id": 3,
          "value": 0.572756469
        },
        {
          "id": 4,
          "value": 1.0
        }
      ],
      "pos": [
        39,
        0
      ]
    },
    {
      "id": 17,
      "plugin": "Fundamental",
      "version": "1.4.0",
      "model": "ADSR",
      "params": [
        {
          "id": 0,
          "value": 0.778260052
        },
        {
          "id": 1,
          "value": 0.640498817
        },
        {
          "id": 2,
          "value": 0.71449995
        },
        {
          "id": 3,
          "value": 0.84862864
        }
      ],
      "pos": [
        32,
        1
      ]
    },
    {
      "id": 35,
      "plugin": "Fundamental",
      "version": "1.4.0",
      "model": "VCO",
      "params": [
        {
          "id": 0,
          "value": 1.0
        },
        {
          "id": 1,
          "value": 1.0
        },
        {
          "id": 2,
          "value": -5.0883522
        },
        {
          "id": 3,
          "value": -0.354000002
        },
        {
          "id": 4,
          "value": 0.0
        },
        {
          "id": 5,
          "value": 0.5
        },
        {
          "id": 6,
          "value": 0.0
        }
      ],
      "pos": [
        2,
        1
      ]
    },
    {
      "id": 36,
      "plugin": "Fundamental",
      "version": "1.4.0",
      "model": "VCA",
      "params": [
        {
          "id": 0,
          "value": 1.0
        },
        {
          "id": 1,
          "value": 1.0
        }
      ],
      "pos": [
        15,
        1
      ]
    },
    {
      "id": 37,
      "plugin": "Fundamental",
      "version": "1.4.0",
      "model": "ADSR",
      "params": [
        {
          "id": 0,
          "value": 0.778257787
        },
        {
          "id": 1,
          "value": 0.640500188
        },
        {
          "id": 2,
          "value": 0.714499474
        },
        {
          "id": 3,
          "value": 0.66451478
        }
      ],
      "pos": [
        22,
        1
      ]
    }
  ],
  "cables": [
    {
      "id": 1,
      "outputModuleId": 11,
      "outputId": 0,
      "inputModuleId": 3,
      "inputId": 0,
      "color": "#c91847"
    },
    {
      "id": 15,
      "outputModuleId": 9,
      "outputId": 0,
      "inputModuleId": 16,
      "inputId": 2,
      "color": "#0c8e15"
    },
    {
      "id": 17,
      "outputModuleId": 11,
      "outputId": 0,
      "inputModuleId": 15,
      "inputId": 0,
      "color": "#0986ad"
    },
    {
      "id": 18,
      "outputModuleId": 9,
      "outputId": 1,
      "inputModuleId": 16,
      "inputId": 1,
      "color": "#c9b70e"
    },
    {
      "id": 20,
      "outputModuleId": 16,
      "outputId": 0,
      "inputModuleId": 12,
      "inputId": 1,
      "color": "#c91847"
    },
    {
      "id": 21,
      "outputModuleId": 16,
      "outputId": 0,
      "inputModuleId": 12,
      "inputId": 0,
      "color": "#0986ad"
    },
    {
      "id": 22,
      "outputModuleId": 16,
      "outputId": 0,
      "inputModuleId": 13,
      "inputId": 0,
      "color": "#0c8e15"
    },
    {
      "id": 23,
      "outputModuleId": 16,
      "outputId": 0,
      "inputModuleId": 14,
      "inputId": 2,
      "color": "#c91847"
    },
    {
      "id": 24,
      "outputModuleId": 16,
      "outputId": 0,
      "inputModuleId": 14,
      "inputId": 3,
      "color": "#0986ad"
    },
    {
      "id": 25,
      "outputModuleId": 11,
      "outputId": 1,
      "inputModuleId": 17,
      "inputId": 4,
      "color": "#0c8e15"
    },
    {
      "id": 26,
      "outputModuleId": 17,
      "outputId": 0,
      "inputModuleId": 9,
      "inputId": 0,
      "color": "#c91847"
    },
    {
      "id": 5,
      "outputModuleId": 3,
      "outputId": 2,
      "inputModuleId": 9,
      "inputId": 5,
      "color": "#c9b70e"
    },
    {
      "id": 69,
      "outputModuleId": 36,
      "outputId": 0,
      "inputModuleId": 16,
      "inputId": 3,
      "color": "#0986ad"
    },
    {
      "id": 72,
      "outputModuleId": 11,
      "outputId": 0,
      "inputModuleId": 35,
      "inputId": 0,
      "color": "#c9b70e"
    },
    {
      "id": 74,
      "outputModuleId": 37,
      "outputId": 0,
      "inputModuleId": 9,
      "inputId": 3,
      "color": "#c91847"
    },
    {
      "id": 75,
      "outputModuleId": 11,
      "outputId": 1,
      "inputModuleId": 37,
      "inputId": 4,
      "color": "#0986ad"
    },
    {
      "id": 76,
      "outputModuleId": 37,
      "outputId": 0,
      "inputModuleId": 36,
      "inputId": 3,
      "color": "#c9b70e"
    },
    {
      "id": 77,
      "outputModuleId": 37,
      "outputId": 0,
      "inputModuleId": 36,
      "inputId": 0,
      "color": "#0986ad"
    },
    {
      "id": 70,
      "outputModuleId": 35,
      "outputId": 3,
      "inputModuleId": 36,
      "inputId": 2,
      "color": "#c91847"
    },
    {
      "id": 16,
      "outputModuleId": 15,
      "outputId": 1,
      "inputModuleId": 9,
      "inputId": 2,
      "color": "#c91847"
    }
  ]
}